<svg width="20" height="20" viewBox="0 0 20 20" fill="none" xmlns="http://www.w3.org/2000/svg">
<g id="Github_logo">
<path id="Subtract" fill-rule="evenodd" clip-rule="evenodd" d="M18.75 10C18.75 14.8325 14.8325 18.75 10 18.75C5.16751 18.75 1.25 14.8325 1.25 10C1.25 5.16751 5.16751 1.25 10 1.25C14.8325 1.25 18.75 5.16751 18.75 10ZM19.75 10C19.75 15.3848 15.3848 19.75 10 19.75C4.61522 19.75 0.25 15.3848 0.25 10C0.25 4.61522 4.61522 0.25 10 0.25C15.3848 0.25 19.75 4.61522 19.75 10ZM1.875 10.0053C1.875 13.603 4.20078 16.6416 7.43047 17.7189C7.83672 17.7902 7.98906 17.5462 7.98906 17.333C7.98906 17.2658 7.98784 17.1447 7.98624 16.9867L7.98623 16.9865V16.9864C7.98323 16.6897 7.97891 16.2628 7.97891 15.8186C5.9375 16.1944 5.40938 15.3203 5.24688 14.8631C5.15547 14.6294 4.75938 13.9078 4.41406 13.7147C4.12969 13.5622 3.72344 13.1863 4.40391 13.1761C5.04375 13.1659 5.50078 13.7655 5.65312 14.0094C6.38438 15.2391 7.55234 14.8938 8.01953 14.6802C8.09062 14.1517 8.30391 13.7958 8.5375 13.5927C6.72969 13.3895 4.84062 12.6883 4.84062 9.57859C4.84062 8.69422 5.15547 7.9625 5.67344 7.39344C5.59219 7.19031 5.30781 6.35687 5.75469 5.23875C5.75469 5.23875 6.43516 5.02547 7.98906 6.07219C8.63906 5.88937 9.32969 5.79781 10.0203 5.79781C10.7109 5.79781 11.4016 5.88937 12.0516 6.07219C13.6055 5.01531 14.2859 5.23891 14.2859 5.23891C14.7328 6.35672 14.4484 7.19 14.3672 7.39328C14.8852 7.96234 15.2 8.68391 15.2 9.57828C15.2 12.6983 13.3008 13.3892 11.493 13.5927C11.7875 13.8467 12.0414 14.3345 12.0414 15.0967C12.0414 15.8205 12.0369 16.4497 12.0339 16.8706L12.0339 16.8709C12.0324 17.0822 12.0312 17.2409 12.0312 17.3327C12.0312 17.5459 12.1836 17.7998 12.5898 17.7186C15.7992 16.6417 18.125 13.593 18.125 10.0055C18.125 5.51313 14.4891 1.875 10 1.875C5.51094 1.875 1.875 5.51328 1.875 10.0053Z" fill="#BABABA"/>
</g>
</svg>
