<svg width="20" height="20" viewBox="0 0 20 20" fill="none" xmlns="http://www.w3.org/2000/svg">
<path d="M17.0413 17.0412H14.0778V12.4C14.0778 11.2932 14.0581 9.86849 12.5366 9.86849C10.9931 9.86849 10.7569 11.0743 10.7569 12.3194V17.0408H7.79353V7.49661H10.6384V8.80091H10.6783C11.2575 7.81045 12.3385 7.21668 13.4852 7.25926C16.4887 7.25926 17.0425 9.235 17.0425 11.8054L17.0413 17.0412ZM4.44979 6.19195C3.50637 6.19195 2.7297 5.41567 2.7297 4.47218C2.7297 3.52869 3.50601 2.75232 4.44943 2.75232C5.39276 2.75232 6.16898 3.52851 6.16916 4.47182C6.16916 5.41514 5.39303 6.19187 4.44979 6.19195ZM5.93148 17.0412H2.96498V7.49661H5.93148V17.0412ZM18.5186 0.000126943H1.47578C0.675763 -0.00890896 0.0097512 0.641674 0 1.44175V18.5566C0.00939253 19.3572 0.675316 20.0085 1.47578 19.9999H18.5186C19.321 20.01 19.9893 19.3588 20 18.5566V1.44059C19.9893 0.638811 19.3201 -0.0104299 18.5186 0.000126943Z" fill="#BABABA"/>
</svg>
