<svg width="20" height="20" viewBox="0 0 20 20" fill="none" xmlns="http://www.w3.org/2000/svg">
<g id="SoundCloud_logo">
<path id="Subtract" fill-rule="evenodd" clip-rule="evenodd" d="M2 0C0.895431 0 0 0.895431 0 2V10.2342C0 10.2275 6.40846e-05 10.2209 0.000195442 10.2143C0.00310373 10.0678 0.0284633 9.91932 0.0536522 9.77184C0.0677412 9.68935 0.0817767 9.60717 0.0918002 9.52584C0.0950895 9.49914 0.0981831 9.47237 0.10128 9.44556C0.11109 9.36064 0.120934 9.27543 0.13714 9.19174C0.138662 9.18389 0.139854 9.17561 0.141068 9.16719C0.146419 9.13007 0.152179 9.09011 0.188334 9.07054C0.242776 9.04108 0.292753 9.08059 0.306842 9.13104C0.334025 9.22837 0.347332 9.33427 0.360355 9.4379C0.365818 9.48138 0.371231 9.52445 0.377597 9.56633C0.388489 9.63798 0.403114 9.71109 0.417848 9.78474C0.446523 9.92807 0.475612 10.0735 0.478408 10.2143C0.479523 10.2705 0.467265 10.3272 0.455146 10.3834C0.449053 10.4116 0.442995 10.4396 0.438688 10.4674C0.431001 10.5169 0.424153 10.5668 0.417294 10.6168C0.402276 10.7262 0.387202 10.8361 0.363132 10.9432C0.357342 10.969 0.354151 11.0073 0.350566 11.0504C0.341112 11.164 0.328917 11.3105 0.259049 11.3462C0.208887 11.3719 0.158828 11.3352 0.147487 11.2874C0.121749 11.1788 0.108919 11.0648 0.0962868 10.9526C0.0924922 10.9189 0.0887154 10.8853 0.0846117 10.8521C0.0756697 10.7797 0.0621821 10.7056 0.0485871 10.6309C0.0244629 10.4984 8.48126e-07 10.364 0 10.2342V18C0 19.1046 0.895431 20 2 20H18C19.1046 20 20 19.1046 20 18V10.0882C19.9998 10.58 19.8473 11.0757 19.5224 11.5C19.1655 11.9662 18.6187 12.3131 18.0269 12.4171C17.6775 12.4784 17.3143 12.472 16.9559 12.4656C16.8468 12.4637 16.7382 12.4618 16.6306 12.4618C15.9859 12.4618 15.3416 12.4593 14.6974 12.4567C14.0533 12.4542 13.4091 12.4517 12.7646 12.4517H11.139C11.1014 12.4517 11.0588 12.4542 11.0137 12.4569C10.8456 12.467 10.6431 12.4791 10.5381 12.369C10.4331 12.2588 10.4411 12.0817 10.448 11.9282C10.4497 11.8917 10.4513 11.8566 10.4513 11.824V10.4775V6.26589V5.03076C10.4513 4.98348 10.4483 4.93177 10.4451 4.8782C10.4367 4.73332 10.4274 4.57487 10.4749 4.45369C10.5365 4.29656 10.7857 4.2329 10.9618 4.18791C10.9881 4.18121 11.0127 4.17492 11.0348 4.1688C11.6113 4.00936 12.201 3.96492 12.7959 4.0268C14.3166 4.18498 15.6571 5.19532 16.2583 6.54937C16.4337 6.94431 16.5889 7.41083 16.5889 7.84524C16.6514 7.82866 16.7127 7.80885 16.774 7.78906C16.8705 7.75788 16.9669 7.72672 17.0682 7.70816C17.5594 7.61814 18.0789 7.66709 18.5375 7.8641C19.4685 8.26402 19.9996 9.16799 20 10.0861V2C20 0.895431 19.1046 0 18 0H2ZM9.68109 4.82828C9.69086 4.693 9.77844 4.5828 9.91984 4.55967C10.085 4.53266 10.2142 4.66873 10.2306 4.81816C10.2389 4.893 10.2364 4.96916 10.234 5.04524C10.2322 5.10139 10.2304 5.1575 10.2329 5.21299C10.2473 5.53318 10.2517 5.85389 10.2533 6.17478C10.2568 6.87117 10.2791 7.56784 10.3015 8.26451C10.3206 8.86049 10.3397 9.45648 10.347 10.0523C10.349 10.212 10.3376 10.371 10.3263 10.53C10.3162 10.671 10.3061 10.812 10.3054 10.9533C10.3038 11.2562 10.279 11.5651 10.2546 11.8706C10.2466 11.9703 10.2386 12.0696 10.2315 12.1682C10.2219 12.3009 10.1365 12.4228 9.99278 12.4397C9.82904 12.459 9.69796 12.3441 9.68195 12.1885C9.65416 11.9186 9.64418 11.6463 9.6342 11.3741C9.62707 11.1794 9.61994 10.9848 9.6063 10.7913C9.5706 10.285 9.58327 9.78268 9.59606 9.27583L9.59665 9.25249C9.60188 9.0451 9.60743 8.83759 9.61298 8.63C9.63614 7.76448 9.65933 6.89765 9.65933 6.03304C9.65933 5.96876 9.65915 5.90416 9.65897 5.83936C9.65803 5.50304 9.65709 5.16111 9.68109 4.82828ZM8.85736 5.28386C8.86311 5.15758 8.94341 5.04903 9.07579 5.02538C9.25115 4.99406 9.36115 5.14281 9.37621 5.29399C9.38488 5.38103 9.38239 5.46974 9.37991 5.55823C9.37831 5.61552 9.3767 5.67272 9.37813 5.72932C9.38043 5.82028 9.38353 5.91135 9.38663 6.00247C9.39272 6.18137 9.39882 6.36044 9.39882 6.53924C9.39882 7.29598 9.40683 8.06099 9.44091 8.81715C9.44452 8.89733 9.44839 8.97778 9.45227 9.05841C9.47062 9.43957 9.48915 9.82466 9.48162 10.2041C9.47881 10.3457 9.46726 10.4872 9.45571 10.6286C9.44468 10.7638 9.43364 10.899 9.43023 11.0343C9.4262 11.1945 9.41558 11.3546 9.40495 11.5148C9.39163 11.7158 9.37831 11.9168 9.37798 12.1176C9.37775 12.2557 9.33312 12.4204 9.16957 12.4483C9.01967 12.474 8.88872 12.3841 8.8618 12.2391C8.8375 12.1081 8.83792 11.9676 8.83834 11.8292C8.83855 11.7589 8.83876 11.6891 8.83571 11.6215C8.83124 11.5224 8.82403 11.4231 8.81681 11.3237C8.80734 11.1934 8.79787 11.0631 8.79459 10.9331C8.7919 10.8263 8.78567 10.7194 8.77945 10.6126C8.7721 10.4865 8.76476 10.3605 8.76322 10.2345C8.75483 9.54916 8.77679 8.86354 8.79875 8.17786C8.81743 7.59453 8.83612 7.01116 8.83612 6.42788C8.83612 6.04853 8.84012 5.66315 8.85736 5.28386ZM6.39775 5.91155C6.39775 5.77566 6.40379 5.62174 6.57489 5.59235C6.75921 5.5607 6.79981 5.73847 6.81279 5.87106C6.84631 6.21321 6.84608 6.5751 6.84586 6.92151C6.84584 6.94943 6.84582 6.97725 6.84582 7.00495C6.84582 7.80719 6.88236 8.61787 6.9185 9.41973L6.91917 9.43472C6.94549 10.0187 6.96009 10.6148 6.8815 11.1963C6.84049 11.4998 6.82245 11.8217 6.81472 12.1277C6.81125 12.2649 6.8001 12.4241 6.627 12.4471C6.42061 12.4744 6.40677 12.2792 6.39682 12.1378C6.38909 12.0282 6.37979 11.9183 6.37048 11.8083C6.34837 11.5471 6.32619 11.2849 6.32479 11.0242C6.324 10.8766 6.31136 10.7294 6.29872 10.5822C6.28473 10.4194 6.27074 10.2565 6.27274 10.0928C6.27871 9.60532 6.29871 9.11782 6.31871 8.63026C6.3426 8.04808 6.36649 7.46582 6.36649 6.88346C6.36649 6.72134 6.3743 6.55935 6.38212 6.39738C6.38993 6.23545 6.39775 6.07355 6.39775 5.91155ZM7.21054 6.03304C7.21059 5.89175 7.21126 5.73042 7.38768 5.69407C7.5299 5.66476 7.64316 5.76902 7.65683 5.90143C7.69119 6.23392 7.69059 6.58654 7.69002 6.92497C7.68995 6.96877 7.68987 7.01232 7.68987 7.05557C7.68991 7.54519 7.71119 8.03535 7.73247 8.52554C7.77087 9.40992 7.80927 10.2944 7.72291 11.1761C7.70343 11.3749 7.6922 11.5751 7.68099 11.7752C7.6744 11.8929 7.66781 12.0105 7.65954 12.1277C7.659 12.1353 7.6585 12.1431 7.65799 12.151C7.65039 12.2687 7.64113 12.412 7.49189 12.4382C7.36111 12.4612 7.24443 12.399 7.21593 12.2695C7.19253 12.163 7.19215 12.0461 7.19179 11.9322C7.19162 11.8817 7.19146 11.8317 7.18929 11.7835C7.18506 11.6897 7.17781 11.5956 7.17056 11.5016C7.15932 11.3559 7.14808 11.2102 7.14801 11.0647C7.14795 10.9172 7.13477 10.7692 7.1216 10.6213C7.11041 10.4956 7.09923 10.37 7.09607 10.2446C7.08704 9.88638 7.10481 9.52601 7.12256 9.16635C7.13265 8.96181 7.14273 8.7575 7.14786 8.55393C7.15239 8.37422 7.15251 8.19311 7.15264 8.01164C7.15288 7.65122 7.15313 7.28935 7.18792 6.93408C7.21227 6.68562 7.21151 6.42281 7.21078 6.16919C7.21065 6.12346 7.21052 6.07803 7.21054 6.03304ZM5.58497 6.07354C5.58558 5.94943 5.58804 5.78862 5.74126 5.75493C5.91734 5.71623 5.9705 5.89273 5.97051 6.02292C5.97053 6.39659 5.974 6.78497 6.01042 7.15681C6.04306 7.49003 6.04682 7.82788 6.05057 8.16514C6.05292 8.37639 6.05526 8.5874 6.0647 8.7969C6.10096 9.60138 6.12386 10.3935 6.04523 11.1963C6.03219 11.3294 6.02512 11.4637 6.01806 11.5979C6.00855 11.7787 5.99904 11.9595 5.97493 12.1378C5.97233 12.157 5.97072 12.1776 5.96906 12.1985C5.96099 12.3009 5.95206 12.4142 5.82463 12.4381C5.65497 12.4699 5.59556 12.3358 5.58588 12.1986C5.57797 12.0862 5.56839 11.9732 5.5588 11.86C5.53633 11.5949 5.51375 11.3284 5.512 11.0647C5.51108 10.9253 5.49741 10.786 5.48374 10.6468C5.46959 10.5027 5.45544 10.3586 5.45544 10.2143C5.45544 9.87669 5.47191 9.53771 5.48832 9.19988C5.49272 9.10933 5.49712 9.01886 5.50119 8.92852C5.51324 8.66114 5.51817 8.39344 5.52311 8.12577C5.53 7.75182 5.5369 7.37791 5.56319 7.00495C5.58239 6.73242 5.58346 6.45438 5.58452 6.18005C5.58466 6.14448 5.58479 6.10897 5.58497 6.07354ZM8.03435 6.15057C8.03967 6.0185 8.04548 5.87424 8.21089 5.83595C8.33703 5.80676 8.47092 5.87743 8.49964 6.00267C8.51837 6.08438 8.51612 6.16904 8.51388 6.25334C8.51269 6.29829 8.5115 6.34314 8.51349 6.38738C8.51678 6.46026 8.5207 6.53342 8.52463 6.6067C8.53447 6.79012 8.54435 6.97432 8.54435 7.15681C8.54435 7.72417 8.5631 8.29238 8.58185 8.86027C8.59096 9.13624 8.60007 9.41213 8.60702 9.68782C8.61983 10.1961 8.62971 10.7097 8.56817 11.2165C8.53996 11.4489 8.5302 11.6904 8.52063 11.9272C8.51832 11.9843 8.51603 12.041 8.51349 12.0973L8.51309 12.1062C8.50655 12.253 8.4994 12.4134 8.3151 12.4469C8.18213 12.4711 8.05252 12.3799 8.03568 12.2492C8.00589 12.0182 7.99948 11.7833 7.99308 11.5486C7.98866 11.3867 7.98424 11.2249 7.97215 11.0647C7.90409 10.1626 7.94055 9.25432 7.98124 8.35145C7.98975 8.16249 7.99088 7.97315 7.99201 7.78383C7.99346 7.54078 7.9949 7.29776 8.01198 7.05557C8.02357 6.8911 8.0247 6.72529 8.02583 6.55959C8.02671 6.43103 8.02758 6.30254 8.03334 6.17478C8.0337 6.16677 8.03403 6.1587 8.03435 6.15057ZM4.78259 6.39463C4.78262 6.29267 4.78266 6.14156 4.90764 6.10956C5.05581 6.07161 5.13074 6.18971 5.13647 6.31651C5.14019 6.39875 5.14417 6.48113 5.14815 6.56361C5.16161 6.84227 5.17512 7.12191 5.17852 7.39979C5.1852 7.94533 5.21179 8.49291 5.23831 9.03923C5.24652 9.20833 5.25473 9.37732 5.26233 9.54608C5.26582 9.62345 5.27077 9.70083 5.27572 9.77824C5.2865 9.947 5.2973 10.1159 5.29303 10.2851C5.28659 10.5404 5.25948 10.8018 5.23278 11.0591C5.22555 11.1288 5.21835 11.1982 5.2116 11.2672C5.1995 11.3906 5.19218 11.5151 5.18486 11.6396C5.17466 11.8132 5.16445 11.9868 5.1413 12.1581C5.13878 12.1768 5.1371 12.1961 5.13541 12.2156C5.1267 12.3161 5.11776 12.4192 4.991 12.4446C4.81043 12.4808 4.78558 12.2923 4.78243 12.1682C4.77352 11.8157 4.75246 11.4446 4.70523 11.0951C4.62954 10.5351 4.65265 9.96631 4.67798 9.40435C4.68408 9.26903 4.69056 9.13345 4.69705 8.99772C4.7241 8.43181 4.75129 7.86314 4.75133 7.29855C4.75134 7.14825 4.75914 6.99792 4.76695 6.84756C4.77474 6.69759 4.78253 6.54757 4.78259 6.39751L4.78259 6.39463ZM3.99064 7.12021C3.99059 7.02316 3.99054 6.89461 4.10526 6.8597C4.21021 6.82776 4.29398 6.90668 4.30228 7.00495C4.32962 7.3288 4.35134 7.66219 4.35531 7.98698C4.35965 8.34141 4.38854 8.69604 4.41743 9.05065C4.44876 9.43526 4.48009 9.81986 4.48009 10.2041C4.48009 10.4897 4.44645 10.7842 4.41332 11.0741C4.40086 11.1832 4.38846 11.2917 4.37796 11.3988C4.37548 11.4241 4.37298 11.4495 4.37048 11.4749C4.34741 11.7087 4.32422 11.9439 4.31326 12.1783C4.31312 12.1814 4.31298 12.1846 4.31283 12.1878C4.30857 12.2818 4.30266 12.4122 4.18863 12.4376C4.05447 12.4675 3.99614 12.3618 3.99105 12.2492C3.98432 12.1004 3.9701 11.9518 3.95587 11.8031C3.93911 11.6279 3.92235 11.4528 3.91785 11.2773C3.91333 11.1008 3.89742 10.9251 3.88151 10.7494C3.86022 10.5143 3.83893 10.2792 3.84491 10.0422C3.85275 9.73142 3.87404 9.42057 3.89534 9.10966C3.92214 8.7186 3.94893 8.32747 3.94896 7.93636C3.94897 7.80123 3.95938 7.66633 3.9698 7.53142C3.98021 7.39651 3.99063 7.26159 3.99064 7.12644L3.99064 7.12021ZM2.41762 8.17975C2.41909 8.10933 2.42105 8.01555 2.49107 7.98554C2.58162 7.94674 2.65558 8.01344 2.66544 8.09835C2.6958 8.36009 2.71945 8.62525 2.73927 8.88802C2.75186 9.05495 2.77223 9.22298 2.79264 9.39135C2.82591 9.66585 2.85929 9.94125 2.85929 10.2143C2.85929 10.5736 2.81109 10.9479 2.76432 11.3111C2.75351 11.395 2.74278 11.4784 2.73274 11.5608C2.72118 11.6557 2.71318 11.751 2.70518 11.8464C2.69587 11.9573 2.68656 12.0682 2.67167 12.1783C2.66992 12.1913 2.66869 12.2047 2.66745 12.2183C2.66105 12.2885 2.65431 12.3624 2.57346 12.3904C2.46005 12.4298 2.42646 12.2956 2.41893 12.2188C2.41323 12.1607 2.40708 12.1022 2.40091 12.0436C2.38082 11.8526 2.36052 11.6595 2.35478 11.4697C2.34884 11.2726 2.32606 11.0759 2.30329 10.8792C2.27804 10.6611 2.25279 10.443 2.25048 10.2244C2.24737 9.9315 2.28067 9.63429 2.31382 9.33847C2.333 9.16723 2.35213 8.99646 2.36412 8.82728C2.37031 8.74004 2.37897 8.65288 2.38763 8.56571C2.39941 8.44713 2.4112 8.32853 2.41675 8.20971C2.41719 8.20045 2.4174 8.19037 2.41762 8.17975ZM1.64508 8.21085C1.64746 8.15075 1.65019 8.08189 1.70955 8.05641C1.82924 8.00506 1.84653 8.12874 1.85815 8.2119C1.85957 8.22203 1.8609 8.23155 1.86232 8.24008C1.88924 8.40175 1.90301 8.56678 1.91673 8.73117C1.9228 8.80394 1.92886 8.87659 1.93605 8.94876C1.94843 9.07298 1.96057 9.19729 1.97272 9.32162C1.98927 9.49096 2.00582 9.66033 2.02296 9.82956C2.02739 9.87335 2.03332 9.91705 2.03926 9.96076C2.0516 10.0517 2.06395 10.1426 2.06283 10.2345C2.05951 10.5068 2.02137 10.784 1.9835 11.0592C1.96362 11.2036 1.94381 11.3475 1.92916 11.4899C1.92213 11.5582 1.91653 11.6271 1.91093 11.6961C1.89974 11.8339 1.88851 11.9722 1.86571 12.1075C1.8633 12.1218 1.86189 12.1374 1.86044 12.1535C1.8548 12.2159 1.84856 12.285 1.78136 12.308C1.66658 12.3474 1.65389 12.2224 1.64577 12.1424C1.64486 12.1335 1.64401 12.1251 1.64308 12.1176C1.61372 11.8799 1.58548 11.638 1.57352 11.3988C1.56526 11.2338 1.54204 11.0666 1.51876 10.899C1.48692 10.6697 1.45499 10.4398 1.46119 10.2143C1.46726 9.99314 1.49484 9.77234 1.52242 9.55155C1.54961 9.33385 1.5768 9.11616 1.58338 8.89814C1.58976 8.68703 1.6123 8.46962 1.64162 8.26033C1.6437 8.24549 1.64438 8.22855 1.64508 8.21085ZM3.19885 8.32955C3.20281 8.2463 3.20753 8.14693 3.3029 8.11559C3.39355 8.08579 3.46637 8.15717 3.47815 8.24008C3.51346 8.48852 3.54035 8.749 3.55298 8.99938C3.56192 9.1767 3.58504 9.35454 3.60816 9.53246C3.63773 9.75992 3.6673 9.9875 3.6673 10.2143C3.6673 10.4938 3.63322 10.7763 3.59924 11.058C3.57772 11.2364 3.55624 11.4145 3.5435 11.5911C3.52847 11.7994 3.5127 12.0115 3.48749 12.2188C3.48676 12.2248 3.48607 12.2308 3.48538 12.2369C3.47653 12.3143 3.467 12.3975 3.37584 12.4231C3.26087 12.4554 3.21259 12.348 3.20166 12.2593C3.17232 12.021 3.15398 11.7703 3.14673 11.5304C3.14012 11.3114 3.11679 11.0925 3.09347 10.8738C3.07255 10.6776 3.05164 10.4814 3.04279 10.2851C3.03738 10.1652 3.05106 10.0445 3.06468 9.92433C3.07173 9.8622 3.07875 9.80018 3.08313 9.73844C3.08746 9.6773 3.09147 9.61597 3.09548 9.55456C3.10956 9.33875 3.12372 9.12188 3.15259 8.90827C3.17767 8.72263 3.18893 8.52836 3.19828 8.34132C3.19848 8.33744 3.19866 8.33351 3.19885 8.32955ZM0.866144 8.56963C0.869002 8.51012 0.87281 8.43084 0.927618 8.40235C1.02226 8.35317 1.05354 8.46894 1.06078 8.53368C1.08397 8.74087 1.11159 8.94732 1.13923 9.15389L1.14294 9.18162C1.15644 9.28258 1.17371 9.38605 1.19115 9.4906C1.23199 9.7354 1.27382 9.98611 1.27072 10.2244C1.26734 10.4855 1.22249 10.7579 1.17862 11.0243C1.16119 11.1302 1.14391 11.2351 1.12945 11.338C1.1067 11.4999 1.08413 11.6617 1.06413 11.824C1.06301 11.8331 1.0622 11.8433 1.06134 11.854C1.05702 11.9083 1.05152 11.9774 0.998896 11.9987C0.896471 12.0402 0.880637 11.9206 0.871699 11.8531C0.871295 11.85 0.870905 11.8471 0.870522 11.8442C0.855204 11.7315 0.842873 11.6184 0.830543 11.5053C0.819301 11.4022 0.80806 11.2991 0.794557 11.1963C0.784013 11.116 0.771684 11.0339 0.759208 10.9508C0.720935 10.6959 0.681282 10.4317 0.687531 10.1839C0.692649 9.98091 0.723031 9.77755 0.753378 9.57442C0.776501 9.41964 0.799605 9.265 0.811498 9.11075C0.817889 9.02786 0.827647 8.94521 0.837405 8.86255C0.847946 8.77327 0.858486 8.68399 0.864782 8.59442C0.865322 8.58674 0.865722 8.5784 0.866144 8.56963ZM2.26086 13.3284C2.36733 13.3704 2.51297 13.4509 2.56305 13.5552C2.53826 13.5722 2.508 13.6057 2.47544 13.6419C2.41802 13.7056 2.35346 13.7772 2.29915 13.7797C2.26783 13.7811 2.22739 13.7481 2.19218 13.7194C2.17508 13.7054 2.15922 13.6925 2.14623 13.685C2.02021 13.6121 1.71449 13.5371 1.63573 13.7176C1.56171 13.8872 1.81197 13.9423 1.96046 13.9749C1.98375 13.9801 2.00455 13.9846 2.02119 13.989C2.02846 13.9909 2.03575 13.9928 2.04305 13.9947C2.19054 14.0333 2.34268 14.0731 2.45843 14.1757C2.64021 14.3369 2.64518 14.6699 2.51182 14.8612C2.30706 15.155 1.79342 15.1584 1.48975 15.0318C1.39569 14.9926 1.31223 14.9419 1.2397 14.8713C1.23628 14.868 1.23241 14.8644 1.22833 14.8606C1.20499 14.8391 1.17446 14.8108 1.17752 14.7803C1.1824 14.7318 1.37734 14.5596 1.42723 14.5596C1.45985 14.5596 1.50078 14.5962 1.53778 14.6293C1.55844 14.6478 1.57788 14.6651 1.59395 14.6744C1.68888 14.7291 1.79744 14.7498 1.90656 14.7498C2.03441 14.7498 2.23345 14.714 2.21563 14.5474C2.20032 14.4042 2.00401 14.3622 1.86755 14.333C1.84779 14.3288 1.82929 14.3248 1.81278 14.3209C1.80682 14.3195 1.80082 14.318 1.79481 14.3166C1.66124 14.2847 1.51674 14.2501 1.40638 14.1674C1.23521 14.039 1.19601 13.7855 1.27164 13.5957C1.4179 13.2285 1.93923 13.2018 2.26086 13.3284ZM2.89514 14.3854C2.8251 13.9026 2.99847 13.3608 3.55298 13.2663C3.63983 13.2515 3.74861 13.2542 3.83433 13.2729C4.40014 13.3967 4.56501 14.0031 4.43739 14.4967C4.36328 14.7835 4.16811 15.032 3.85517 15.0894C3.73902 15.1107 3.61704 15.1107 3.50088 15.0894C3.1433 15.0239 2.9429 14.7146 2.89514 14.3854ZM11.7226 14.517L12.0352 14.6891C11.9935 14.9014 11.7385 15.0547 11.535 15.0881C11.1459 15.1522 10.7747 14.991 10.6292 14.6182C10.4889 14.2593 10.5266 13.7562 10.8164 13.4746C11.1634 13.1375 11.8408 13.1953 12.0456 13.6564L11.6913 13.8083C11.557 13.5344 11.1681 13.5786 11.0261 13.8184C10.9 14.0312 10.8933 14.3493 11.0359 14.5575C11.2202 14.8264 11.5674 14.7874 11.7226 14.517ZM13.6487 14.3753C13.5894 13.8951 13.752 13.3609 14.3068 13.2663C14.3866 13.2527 14.4876 13.2541 14.5673 13.2678C15.1393 13.366 15.321 13.9877 15.1974 14.4765C15.1228 14.7717 14.9344 15.0298 14.609 15.0894C14.4928 15.1107 14.3709 15.1107 14.2547 15.0894C13.8959 15.0236 13.6898 14.7076 13.6487 14.3753ZM4.83469 14.1019V13.292H5.20982V14.0614C5.20982 14.0914 5.20905 14.1219 5.20828 14.1526C5.20527 14.272 5.20217 14.3953 5.24359 14.5069C5.3283 14.7351 5.61603 14.8305 5.81229 14.6664C5.94806 14.5529 5.94967 14.3719 5.94967 14.2133V13.292H6.3248V14.1019C6.3248 14.1171 6.32484 14.1323 6.32488 14.1476C6.3254 14.3461 6.32592 14.5448 6.23822 14.7296C6.017 15.1956 5.24024 15.2454 4.96445 14.8005C4.83451 14.5907 4.8346 14.3565 4.83468 14.1204L4.83469 14.1019ZM6.7833 15.0738V13.292C6.8092 13.292 6.84154 13.2894 6.87651 13.2867C6.96772 13.2794 7.07687 13.2708 7.13662 13.3024C7.20487 13.3385 7.26391 13.4413 7.31369 13.528C7.33277 13.5613 7.35049 13.5921 7.36684 13.6159C7.42651 13.7029 7.48475 13.7918 7.54313 13.8809C7.66024 14.0596 7.7779 14.2391 7.9087 14.4056V13.292H8.27342V15.0738C8.25057 15.0738 8.22047 15.0763 8.1873 15.079C8.09825 15.0864 7.98711 15.0955 7.93494 15.0634C7.87614 15.0272 7.82661 14.9421 7.78222 14.8658C7.76135 14.8299 7.74163 14.796 7.7226 14.7701C7.64054 14.6581 7.56494 14.5392 7.48919 14.4202C7.37906 14.2471 7.26863 14.0735 7.13759 13.9197L7.14801 15.0738H6.7833ZM8.74233 15.0738V13.292C8.81625 13.292 8.89377 13.2891 8.97309 13.2861C9.2871 13.2744 9.62939 13.2617 9.88857 13.423C10.3782 13.7277 10.3416 14.6079 9.87815 14.9144C9.6047 15.0952 9.26768 15.0862 8.94479 15.0775C8.87642 15.0756 8.80869 15.0738 8.74233 15.0738ZM12.3582 15.0738V13.292H12.7333V14.7195H13.4628V15.0738H12.3582ZM15.5885 14.1019V13.292H15.9637V14.2436C15.9637 14.4188 15.9923 14.6052 16.1616 14.7045C16.3664 14.8246 16.6149 14.6965 16.6805 14.4866C16.7187 14.3644 16.7167 14.2322 16.7148 14.1038C16.7143 14.076 16.7139 14.0483 16.7139 14.0209V13.292H17.0786V14.1221C17.0786 14.1393 17.0787 14.1565 17.0788 14.1738C17.0795 14.3552 17.0802 14.5403 17.0025 14.7093C16.7843 15.1833 16.0045 15.2622 15.7183 14.8005C15.5884 14.5909 15.5885 14.3517 15.5885 14.1156L15.5885 14.1019ZM17.5371 15.0738V13.292C17.6108 13.292 17.6878 13.2892 17.7666 13.2863C18.0812 13.2748 18.423 13.2623 18.6834 13.4245C19.1719 13.7289 19.1365 14.6079 18.673 14.9144C18.3995 15.0953 18.0628 15.0862 17.7399 15.0775C17.6714 15.0756 17.6036 15.0738 17.5371 15.0738ZM4.05659 13.9095C3.99443 13.7245 3.83477 13.5922 3.62593 13.6189C3.23843 13.6684 3.19321 14.2022 3.30773 14.4866C3.37242 14.6473 3.523 14.7683 3.70929 14.7469C4.10229 14.7019 4.1571 14.2089 4.05659 13.9095ZM14.8085 13.8994C14.7429 13.718 14.5846 13.5927 14.3798 13.6189C13.9893 13.6688 13.9633 14.1811 14.057 14.4664C14.1133 14.6375 14.2692 14.7692 14.4631 14.7469C14.8569 14.7018 14.9167 14.1994 14.8085 13.8994ZM9.3463 13.6394C9.27906 13.6305 9.18246 13.6178 9.1312 13.6423C9.10127 13.6566 9.10407 13.7027 9.10614 13.7368C9.10661 13.7446 9.10705 13.7517 9.10705 13.7577V14.0817V14.5372C9.10705 14.5481 9.10589 14.5623 9.10461 14.5781C9.10077 14.6253 9.09581 14.6864 9.11776 14.7134C9.13536 14.7349 9.17781 14.7324 9.21004 14.7305C9.21825 14.73 9.22579 14.7296 9.23209 14.7296C9.34436 14.7296 9.46244 14.7239 9.56554 14.6763C9.87947 14.5313 9.96184 14.0155 9.71872 13.7695C9.62683 13.6766 9.50246 13.6579 9.37798 13.6434C9.36854 13.6423 9.35785 13.6409 9.3463 13.6394ZM17.9018 13.6362V14.7296C17.9148 14.7296 17.9277 14.7296 17.9407 14.7297C18.1284 14.7303 18.3208 14.7309 18.4749 14.6099C18.7106 14.4249 18.7207 13.9143 18.4719 13.7344C18.3302 13.6319 18.1405 13.6339 17.9681 13.6357C17.9457 13.636 17.9235 13.6362 17.9018 13.6362Z" fill="#BABABA"/>
</g>
</svg>
