<svg width="800" height="800" viewBox="0 0 800 800" fill="none" xmlns="http://www.w3.org/2000/svg">
<g id="SpeedDating">
<rect x="0.5" y="0.5" width="799" height="799" fill="white"/>
<g id="laptop 2">
<path id="Vector" d="M324.986 735.099C324.983 735.055 324.984 735.012 324.979 734.968C324.964 734.794 324.938 734.623 324.903 734.456C324.899 734.44 324.894 734.423 324.89 734.407C324.855 734.253 324.812 734.103 324.762 733.957C324.749 733.918 324.734 733.88 324.719 733.841C324.67 733.708 324.614 733.578 324.553 733.452C324.542 733.43 324.535 733.407 324.524 733.385L301.021 687.027V534.507C301.021 529.816 297.205 526 292.514 526H57.485C52.7939 526 48.9777 529.816 48.9777 534.507V687.026L25.4752 733.384C25.4641 733.407 25.457 733.43 25.4465 733.452C25.385 733.578 25.3299 733.707 25.2801 733.84C25.2654 733.878 25.2508 733.917 25.2373 733.956C25.1875 734.103 25.1441 734.254 25.1096 734.407C25.1061 734.423 25.1008 734.439 25.0973 734.455C25.0615 734.622 25.0363 734.793 25.0205 734.967C25.0164 735.01 25.0164 735.054 25.0141 735.098C25.0082 735.189 25 735.279 25 735.372V746.52C25 752.092 29.5322 756.624 35.1039 756.624H314.896C320.468 756.624 325 752.092 325 746.52V735.372C325 735.279 324.992 735.189 324.986 735.099ZM57.7674 534.79H292.233V683.682H57.7674V534.79ZM56.0717 692.471H293.928L313.45 730.977H216.899L212.053 713.405C211.066 709.828 207.786 707.33 204.075 707.33H145.923C142.213 707.33 138.932 709.828 137.946 713.405L133.1 730.977H36.5494L56.0717 692.471ZM207.782 730.977H142.218L146.315 716.119H203.685L207.782 730.977ZM316.211 746.519C316.211 747.244 315.621 747.834 314.896 747.834H35.1039C34.3791 747.834 33.7891 747.244 33.7891 746.519V739.766H316.211V746.519Z" fill="black"/>
<rect id="Rectangle 9" x="70" y="548" width="210" height="120" fill="#EFEFEF"/>
<path id="Vector_2" d="M278.463 616.56C276.036 616.56 274.069 618.527 274.069 620.954V665.518H75.9315V620.954C75.9315 618.527 73.9645 616.56 71.537 616.56C69.1094 616.56 67.1425 618.527 67.1425 620.954V667.415C67.1425 671.215 70.2333 674.307 74.0337 674.307H275.967C279.767 674.307 282.858 671.216 282.858 667.415V620.954C282.858 618.528 280.891 616.56 278.463 616.56Z" fill="black"/>
<path id="Vector_3" d="M275.967 544.165H74.0337C70.2339 544.165 67.1425 547.256 67.1425 551.056V597.518C67.1425 599.945 69.1094 601.912 71.537 601.912C73.9645 601.912 75.9315 599.945 75.9315 597.518V552.954H274.069V597.518C274.069 599.945 276.036 601.912 278.463 601.912C280.891 601.912 282.858 599.945 282.858 597.518V551.056C282.858 547.255 279.767 544.165 275.967 544.165Z" fill="black"/>
<path id="2" d="M269.141 575H257.445V572.68L262.965 566.797C263.723 565.969 264.281 565.246 264.641 564.629C265.008 564.012 265.191 563.426 265.191 562.871C265.191 562.113 265 561.52 264.617 561.09C264.234 560.652 263.687 560.434 262.976 560.434C262.211 560.434 261.605 560.699 261.16 561.23C260.723 561.754 260.504 562.445 260.504 563.305H257.105C257.105 562.266 257.351 561.316 257.844 560.457C258.344 559.598 259.047 558.926 259.953 558.441C260.859 557.949 261.887 557.703 263.035 557.703C264.793 557.703 266.156 558.125 267.125 558.969C268.101 559.812 268.59 561.004 268.59 562.543C268.59 563.387 268.371 564.246 267.933 565.121C267.496 565.996 266.746 567.016 265.683 568.18L261.805 572.27H269.141V575Z" fill="black"/>
</g>
<g id="emoji_neutral2">
<path id="face" d="M174.88 556C112.47 556 111 625.96 111 639.8C111 653.66 139.59 664.88 174.88 664.88C210.16 664.88 238.76 653.66 238.76 639.8C238.76 625.96 237.28 556 174.88 556Z" fill="#FCC21B"/>
<g id="eyes">
<path id="Vector_4" d="M153.09 608.74C148.6 608.78 144.92 604.47 144.87 599.12C144.82 593.75 148.42 589.37 152.91 589.33C157.39 589.29 161.08 593.6 161.13 598.97C161.18 604.32 157.58 608.69 153.09 608.74Z" fill="#2F2F2F"/>
<path id="Vector_5" d="M197.2 608.74C201.68 608.73 205.31 604.38 205.3 599.03C205.29 593.66 201.64 589.33 197.16 589.34C192.67 589.35 189.03 593.7 189.04 599.07C189.06 604.42 192.71 608.75 197.2 608.74Z" fill="#2F2F2F"/>
</g>
<path id="mouth" d="M200.57 631.19H149.19C147.53 631.19 146.19 629.85 146.19 628.19C146.19 626.53 147.53 625.19 149.19 625.19H200.58C202.24 625.19 203.58 626.53 203.58 628.19C203.58 629.85 202.23 631.19 200.57 631.19Z" fill="#2F2F2F"/>
</g>
<g id="laptop 1">
<path id="Vector_6" d="M782.986 735.099C782.983 735.055 782.984 735.012 782.979 734.968C782.964 734.794 782.938 734.623 782.903 734.456C782.899 734.44 782.894 734.423 782.89 734.407C782.855 734.253 782.812 734.103 782.762 733.957C782.749 733.918 782.734 733.88 782.719 733.841C782.67 733.708 782.614 733.578 782.553 733.452C782.542 733.43 782.535 733.407 782.524 733.385L759.021 687.027V534.507C759.021 529.816 755.205 526 750.514 526H515.485C510.794 526 506.978 529.816 506.978 534.507V687.026L483.475 733.384C483.464 733.407 483.457 733.43 483.446 733.452C483.385 733.578 483.33 733.707 483.28 733.84C483.265 733.878 483.251 733.917 483.237 733.956C483.188 734.103 483.144 734.254 483.11 734.407C483.106 734.423 483.101 734.439 483.097 734.455C483.062 734.622 483.036 734.793 483.021 734.967C483.016 735.01 483.016 735.054 483.014 735.098C483.008 735.189 483 735.279 483 735.372V746.52C483 752.092 487.532 756.624 493.104 756.624H772.896C778.468 756.624 783 752.092 783 746.52V735.372C783 735.279 782.992 735.189 782.986 735.099ZM515.767 534.79H750.233V683.682H515.767V534.79ZM514.072 692.471H751.928L771.45 730.977H674.899L670.053 713.405C669.066 709.828 665.786 707.33 662.075 707.33H603.923C600.213 707.33 596.932 709.828 595.946 713.405L591.1 730.977H494.549L514.072 692.471ZM665.782 730.977H600.218L604.315 716.119H661.685L665.782 730.977ZM774.211 746.519C774.211 747.244 773.621 747.834 772.896 747.834H493.104C492.379 747.834 491.789 747.244 491.789 746.519V739.766H774.211V746.519Z" fill="black"/>
<rect id="Rectangle 10" x="529" y="548" width="210" height="120" fill="#EFEFEF"/>
<path id="Vector_7" d="M736.463 616.56C734.036 616.56 732.069 618.527 732.069 620.954V665.518H533.932V620.954C533.932 618.527 531.965 616.56 529.537 616.56C527.109 616.56 525.142 618.527 525.142 620.954V667.415C525.142 671.215 528.233 674.307 532.034 674.307H733.967C737.767 674.307 740.858 671.216 740.858 667.415V620.954C740.858 618.528 738.891 616.56 736.463 616.56Z" fill="black"/>
<path id="Vector_8" d="M733.967 544.165H532.034C528.234 544.165 525.142 547.256 525.142 551.056V597.518C525.142 599.945 527.109 601.912 529.537 601.912C531.965 601.912 533.932 599.945 533.932 597.518V552.954H732.069V597.518C732.069 599.945 734.036 601.912 736.463 601.912C738.891 601.912 740.858 599.945 740.858 597.518V551.056C740.858 547.255 737.767 544.165 733.967 544.165Z" fill="black"/>
<path id="1" d="M723.672 575H720.285V561.945L716.242 563.199V560.445L723.308 557.914H723.672V575Z" fill="black"/>
</g>
<g id="emoji_neutral1">
<path id="face_2" d="M632.88 556C570.47 556 569 625.96 569 639.8C569 653.66 597.59 664.88 632.88 664.88C668.16 664.88 696.76 653.66 696.76 639.8C696.76 625.96 695.28 556 632.88 556Z" fill="#C6FC1B"/>
<g id="eyes_2">
<path id="Vector_9" d="M611.09 608.74C606.6 608.78 602.92 604.47 602.87 599.12C602.82 593.75 606.42 589.37 610.91 589.33C615.39 589.29 619.08 593.6 619.13 598.97C619.18 604.32 615.58 608.69 611.09 608.74Z" fill="#2F2F2F"/>
<path id="Vector_10" d="M655.2 608.74C659.68 608.73 663.31 604.38 663.3 599.03C663.29 593.66 659.64 589.33 655.16 589.34C650.67 589.35 647.03 593.7 647.04 599.07C647.06 604.42 650.71 608.75 655.2 608.74Z" fill="#2F2F2F"/>
</g>
<path id="mouth_2" d="M658.57 631.19H607.19C605.53 631.19 604.19 629.85 604.19 628.19C604.19 626.53 605.53 625.19 607.19 625.19H658.58C660.24 625.19 661.58 626.53 661.58 628.19C661.58 629.85 660.23 631.19 658.57 631.19Z" fill="#2F2F2F"/>
</g>
<g id="Monitor 1">
<rect id="Rectangle" x="508" y="71" width="250" height="155.405" fill="#737373"/>
<rect id="Rectangle 2" x="600.905" y="201.068" width="65.8784" height="52.3649" fill="#737373"/>
<rect id="Rectangle 3" x="565.432" y="253.432" width="135.135" height="16.8919" fill="#737373"/>
<rect id="Rectangle 4" x="524.892" y="89.5811" width="217.905" height="119.932" fill="#EFEFEF"/>
<path id="2_2" d="M731.026 111.581H719.33V109.261L724.85 103.378C725.608 102.55 726.166 101.827 726.526 101.21C726.893 100.593 727.076 100.007 727.076 99.4521C727.076 98.6943 726.885 98.1006 726.502 97.6709C726.119 97.2334 725.573 97.0146 724.862 97.0146C724.096 97.0146 723.49 97.2803 723.045 97.8115C722.608 98.335 722.389 99.0264 722.389 99.8857H718.99C718.99 98.8467 719.237 97.8975 719.729 97.0381C720.229 96.1787 720.932 95.5068 721.838 95.0225C722.744 94.5303 723.772 94.2842 724.92 94.2842C726.678 94.2842 728.041 94.7061 729.01 95.5498C729.987 96.3936 730.475 97.585 730.475 99.124C730.475 99.9678 730.256 100.827 729.819 101.702C729.381 102.577 728.631 103.597 727.569 104.761L723.69 108.851H731.026V111.581Z" fill="black"/>
</g>
<g id="emoji_happy">
<path id="face_3" d="M632.79 95C570.48 95 569 164.86 569 178.69C569 192.52 597.56 203.72 632.79 203.72C668.03 203.72 696.58 192.51 696.58 178.69C696.58 164.86 695.11 95 632.79 95Z" fill="#FCC21B"/>
<g id="eyes_3">
<path id="Vector_11" d="M611.21 152.83C606.72 152.87 603.04 148.56 602.99 143.21C602.94 137.84 606.54 133.46 611.03 133.42C615.51 133.38 619.2 137.69 619.25 143.06C619.3 148.42 615.7 152.79 611.21 152.83Z" fill="#2F2F2F"/>
<path id="Vector_12" d="M655.32 152.83C659.8 152.82 663.43 148.47 663.42 143.12C663.41 137.75 659.76 133.42 655.28 133.43C650.79 133.44 647.15 137.79 647.16 143.16C647.18 148.51 650.83 152.84 655.32 152.83Z" fill="#2F2F2F"/>
</g>
<path id="mouth_3" d="M605.19 167.53C618.92 184.2 647.08 184.2 660.81 167.53" stroke="#2F2F2F" stroke-width="6" stroke-miterlimit="10" stroke-linecap="round"/>
</g>
<g id="webcam 2">
<circle id="Ellipse" cx="633" cy="500" r="20" fill="#00E1E1"/>
<circle id="Ellipse_2" cx="633" cy="500" r="12.7273" fill="black"/>
<circle id="Ellipse_3" cx="633" cy="500" r="7.87879" fill="white"/>
<circle id="Ellipse_4" cx="633" cy="500" r="6.66667" fill="black"/>
<path id="Rectangle_2" d="M619.4 515.152H646.6L651.788 526.061H614.212L619.4 515.152Z" fill="#00E1E1"/>
</g>
<g id="Monitor 2">
<rect id="Rectangle_3" x="48" y="71" width="250" height="155.405" fill="#737373"/>
<rect id="Rectangle 2_2" x="140.905" y="201.068" width="65.8784" height="52.3649" fill="#737373"/>
<rect id="Rectangle 3_2" x="105.432" y="253.432" width="135.135" height="16.8919" fill="#737373"/>
<rect id="Rectangle 4_2" x="64.8919" y="89.5811" width="217.905" height="119.932" fill="#EFEFEF"/>
<path id="2_3" d="M267.557 111.581H264.17V98.5264L260.127 99.7803V97.0264L267.194 94.4951H267.557V111.581Z" fill="black"/>
</g>
<g id="emoji_sad">
<path id="face_4" d="M173.79 96C111.48 96 110 165.86 110 179.69C110 193.52 138.56 204.72 173.79 204.72C209.03 204.72 237.58 193.51 237.58 179.69C237.58 165.86 236.11 96 173.79 96Z" fill="black"/>
<path id="Subtract" fill-rule="evenodd" clip-rule="evenodd" d="M110 179.69C110 165.86 111.48 96 173.79 96C236.11 96 237.58 165.86 237.58 179.69C237.58 193.51 209.03 204.72 173.79 204.72C138.56 204.72 110 193.52 110 179.69ZM151.276 173.924C151.7 173.499 159.739 165.45 173.79 165.45C187.92 165.45 195.97 173.58 196.31 173.93C197.56 175.22 197.53 177.26 196.25 178.51C194.97 179.76 192.92 179.74 191.66 178.47C191.39 178.2 185.06 171.95 173.79 171.95C162.52 171.95 156.19 178.21 155.94 178.46C154.69 179.75 152.63 179.78 151.34 178.53C150.05 177.28 150.02 175.22 151.27 173.93L151.276 173.924ZM151.9 154.36C147.41 154.4 143.73 150.09 143.68 144.74C143.63 139.37 147.23 134.99 151.72 134.95C156.2 134.91 159.89 139.22 159.94 144.59C159.99 149.95 156.39 154.32 151.9 154.36ZM204.11 144.65C204.12 150 200.49 154.35 196.01 154.36C191.52 154.37 187.87 150.04 187.85 144.69C187.84 139.32 191.48 134.97 195.97 134.96C200.45 134.95 204.1 139.28 204.11 144.65Z" fill="#C6FC1B"/>
</g>
<g id="webcam 1">
<circle id="Ellipse_5" cx="175" cy="500" r="20" fill="#00E1E1"/>
<circle id="Ellipse_6" cx="175" cy="500" r="12.7273" fill="black"/>
<circle id="Ellipse_7" cx="175" cy="500" r="7.87879" fill="white"/>
<circle id="Ellipse_8" cx="175" cy="500" r="6.66667" fill="black"/>
<path id="Rectangle_4" d="M161.4 515.152H188.6L193.788 526.061H156.212L161.4 515.152Z" fill="#00E1E1"/>
</g>
<g id="DSP_rectangle">
<rect id="Rectangle 6" x="314" y="307" width="178" height="138" rx="9" fill="white" stroke="black" stroke-width="2"/>
<g id="REALTIME DSP">
<path d="M328.938 337.754H326.137V344H322.621V326.938H328.961C330.977 326.938 332.531 327.387 333.625 328.285C334.719 329.184 335.266 330.453 335.266 332.094C335.266 333.258 335.012 334.23 334.504 335.012C334.004 335.785 333.242 336.402 332.219 336.863L335.91 343.836V344H332.137L328.938 337.754ZM326.137 334.906H328.973C329.855 334.906 330.539 334.684 331.023 334.238C331.508 333.785 331.75 333.164 331.75 332.375C331.75 331.57 331.52 330.938 331.059 330.477C330.605 330.016 329.906 329.785 328.961 329.785H326.137V334.906ZM348.215 336.605H341.465V341.176H349.387V344H337.949V326.938H349.363V329.785H341.465V333.852H348.215V336.605ZM361.082 340.484H354.918L353.746 344H350.008L356.359 326.938H359.617L366.004 344H362.266L361.082 340.484ZM355.867 337.637H360.133L357.988 331.25L355.867 337.637ZM371.113 341.176H378.578V344H367.598V326.938H371.113V341.176ZM391.035 329.785H385.809V344H382.293V329.785H377.137V326.938H391.035V329.785ZM396.789 344H393.273V326.938H396.789V344ZM404.652 326.938L409.035 339.312L413.395 326.938H418.012V344H414.484V339.336L414.836 331.285L410.23 344H407.816L403.223 331.297L403.574 339.336V344H400.059V326.938H404.652ZM431.348 336.605H424.598V341.176H432.52V344H421.082V326.938H432.496V329.785H424.598V333.852H431.348V336.605ZM440.559 344V326.938H445.809C447.309 326.938 448.648 327.277 449.828 327.957C451.016 328.629 451.941 329.59 452.605 330.84C453.27 332.082 453.602 333.496 453.602 335.082V335.867C453.602 337.453 453.273 338.863 452.617 340.098C451.969 341.332 451.051 342.289 449.863 342.969C448.676 343.648 447.336 343.992 445.844 344H440.559ZM444.074 329.785V341.176H445.773C447.148 341.176 448.199 340.727 448.926 339.828C449.652 338.93 450.023 337.645 450.039 335.973V335.07C450.039 333.336 449.68 332.023 448.961 331.133C448.242 330.234 447.191 329.785 445.809 329.785H444.074ZM465.016 339.523C465.016 338.859 464.781 338.352 464.312 338C463.844 337.641 463 337.266 461.781 336.875C460.562 336.477 459.598 336.086 458.887 335.703C456.949 334.656 455.98 333.246 455.98 331.473C455.98 330.551 456.238 329.73 456.754 329.012C457.277 328.285 458.023 327.719 458.992 327.312C459.969 326.906 461.062 326.703 462.273 326.703C463.492 326.703 464.578 326.926 465.531 327.371C466.484 327.809 467.223 328.43 467.746 329.234C468.277 330.039 468.543 330.953 468.543 331.977H465.027C465.027 331.195 464.781 330.59 464.289 330.16C463.797 329.723 463.105 329.504 462.215 329.504C461.355 329.504 460.688 329.688 460.211 330.055C459.734 330.414 459.496 330.891 459.496 331.484C459.496 332.039 459.773 332.504 460.328 332.879C460.891 333.254 461.715 333.605 462.801 333.934C464.801 334.535 466.258 335.281 467.172 336.172C468.086 337.062 468.543 338.172 468.543 339.5C468.543 340.977 467.984 342.137 466.867 342.98C465.75 343.816 464.246 344.234 462.355 344.234C461.043 344.234 459.848 343.996 458.77 343.52C457.691 343.035 456.867 342.375 456.297 341.539C455.734 340.703 455.453 339.734 455.453 338.633H458.98C458.98 340.516 460.105 341.457 462.355 341.457C463.191 341.457 463.844 341.289 464.312 340.953C464.781 340.609 465.016 340.133 465.016 339.523ZM474.449 337.988V344H470.934V326.938H477.59C478.871 326.938 479.996 327.172 480.965 327.641C481.941 328.109 482.691 328.777 483.215 329.645C483.738 330.504 484 331.484 484 332.586C484 334.258 483.426 335.578 482.277 336.547C481.137 337.508 479.555 337.988 477.531 337.988H474.449ZM474.449 335.141H477.59C478.52 335.141 479.227 334.922 479.711 334.484C480.203 334.047 480.449 333.422 480.449 332.609C480.449 331.773 480.203 331.098 479.711 330.582C479.219 330.066 478.539 329.801 477.672 329.785H474.449V335.141Z" fill="black"/>
<path d="M321.098 346.344H484.891V347.516H321.098V346.344Z" fill="black"/>
</g>
<rect id="Rectangle 7" x="348.5" y="356.5" width="109" height="39" rx="14.5" stroke="black"/>
<rect id="Rectangle 8" x="348.5" y="399.5" width="109" height="39" rx="14.5" stroke="black"/>
<path id="smile" d="M382.503 379.788C382.503 379.409 382.313 379.111 381.934 378.896C381.561 378.674 380.96 378.478 380.129 378.306C377.365 377.726 375.982 376.551 375.982 374.782C375.982 373.751 376.409 372.892 377.261 372.204C378.12 371.509 379.241 371.162 380.623 371.162C382.098 371.162 383.276 371.509 384.157 372.204C385.045 372.899 385.489 373.801 385.489 374.911H382.385C382.385 374.467 382.242 374.102 381.955 373.815C381.669 373.522 381.221 373.375 380.612 373.375C380.09 373.375 379.685 373.493 379.398 373.729C379.112 373.966 378.969 374.267 378.969 374.632C378.969 374.976 379.13 375.255 379.452 375.47C379.782 375.677 380.333 375.86 381.106 376.018C381.88 376.168 382.532 376.34 383.062 376.533C384.701 377.135 385.521 378.177 385.521 379.659C385.521 380.719 385.067 381.578 384.157 382.237C383.248 382.889 382.073 383.215 380.634 383.215C379.66 383.215 378.793 383.043 378.034 382.699C377.282 382.348 376.691 381.872 376.262 381.271C375.832 380.662 375.617 380.007 375.617 379.305H378.561C378.589 379.856 378.793 380.279 379.173 380.572C379.552 380.866 380.061 381.013 380.698 381.013C381.293 381.013 381.74 380.902 382.041 380.68C382.349 380.451 382.503 380.153 382.503 379.788ZM390.441 371.377L390.538 372.677C391.362 371.667 392.475 371.162 393.879 371.162C395.376 371.162 396.403 371.753 396.962 372.935C397.778 371.753 398.942 371.162 400.453 371.162C401.714 371.162 402.652 371.531 403.268 372.269C403.883 372.999 404.191 374.102 404.191 375.577V383H401.076V375.588C401.076 374.929 400.947 374.449 400.689 374.148C400.432 373.84 399.977 373.687 399.325 373.687C398.394 373.687 397.75 374.131 397.392 375.019L397.402 383H394.298V375.599C394.298 374.925 394.165 374.438 393.9 374.138C393.635 373.837 393.184 373.687 392.547 373.687C391.666 373.687 391.029 374.052 390.635 374.782V383H387.53V371.377H390.441ZM409.863 383H406.748V371.377H409.863V383ZM406.565 368.369C406.565 367.904 406.719 367.521 407.027 367.22C407.342 366.919 407.769 366.769 408.306 366.769C408.836 366.769 409.258 366.919 409.573 367.22C409.888 367.521 410.046 367.904 410.046 368.369C410.046 368.842 409.885 369.229 409.562 369.529C409.247 369.83 408.828 369.98 408.306 369.98C407.783 369.98 407.36 369.83 407.038 369.529C406.723 369.229 406.565 368.842 406.565 368.369ZM415.707 383H412.592V366.5H415.707V383ZM423.624 383.215C421.92 383.215 420.53 382.692 419.456 381.646C418.389 380.601 417.855 379.208 417.855 377.468V377.167C417.855 376 418.081 374.958 418.532 374.041C418.983 373.117 419.621 372.408 420.444 371.914C421.275 371.413 422.22 371.162 423.28 371.162C424.87 371.162 426.12 371.663 427.029 372.666C427.946 373.669 428.404 375.09 428.404 376.931V378.198H421.003C421.103 378.957 421.404 379.566 421.905 380.024C422.414 380.483 423.055 380.712 423.828 380.712C425.024 380.712 425.959 380.279 426.632 379.412L428.157 381.12C427.692 381.779 427.062 382.295 426.267 382.667C425.472 383.032 424.591 383.215 423.624 383.215ZM423.27 373.676C422.654 373.676 422.152 373.883 421.766 374.299C421.386 374.714 421.143 375.309 421.035 376.082H425.354V375.835C425.339 375.147 425.153 374.618 424.795 374.245C424.437 373.866 423.928 373.676 423.27 373.676Z" fill="black"/>
<path id="un-smile" d="M367.583 425.818C366.817 426.749 365.757 427.215 364.403 427.215C363.157 427.215 362.205 426.857 361.546 426.141C360.894 425.424 360.561 424.375 360.547 422.993V415.377H363.651V422.886C363.651 424.096 364.203 424.701 365.306 424.701C366.358 424.701 367.082 424.336 367.476 423.605V415.377H370.591V427H367.669L367.583 425.818ZM375.79 415.377L375.887 416.72C376.717 415.681 377.831 415.162 379.228 415.162C380.459 415.162 381.376 415.524 381.978 416.247C382.579 416.97 382.887 418.052 382.901 419.491V427H379.797V419.566C379.797 418.908 379.654 418.431 379.367 418.138C379.081 417.837 378.604 417.687 377.938 417.687C377.065 417.687 376.41 418.059 375.973 418.804V427H372.868V415.377H375.79ZM391.302 421.554H385.254V419.051H391.302V421.554ZM400.089 423.788C400.089 423.409 399.899 423.111 399.52 422.896C399.147 422.674 398.546 422.478 397.715 422.306C394.951 421.726 393.568 420.551 393.568 418.782C393.568 417.751 393.994 416.892 394.847 416.204C395.706 415.509 396.827 415.162 398.209 415.162C399.684 415.162 400.862 415.509 401.743 416.204C402.631 416.899 403.075 417.801 403.075 418.911H399.971C399.971 418.467 399.827 418.102 399.541 417.815C399.255 417.522 398.807 417.375 398.198 417.375C397.675 417.375 397.271 417.493 396.984 417.729C396.698 417.966 396.555 418.267 396.555 418.632C396.555 418.976 396.716 419.255 397.038 419.47C397.368 419.677 397.919 419.86 398.692 420.018C399.466 420.168 400.118 420.34 400.647 420.533C402.287 421.135 403.107 422.177 403.107 423.659C403.107 424.719 402.653 425.578 401.743 426.237C400.834 426.889 399.659 427.215 398.22 427.215C397.246 427.215 396.379 427.043 395.62 426.699C394.868 426.348 394.277 425.872 393.848 425.271C393.418 424.662 393.203 424.007 393.203 423.305H396.146C396.175 423.856 396.379 424.279 396.759 424.572C397.138 424.866 397.647 425.013 398.284 425.013C398.879 425.013 399.326 424.902 399.627 424.68C399.935 424.451 400.089 424.153 400.089 423.788ZM408.027 415.377L408.124 416.677C408.948 415.667 410.061 415.162 411.465 415.162C412.962 415.162 413.989 415.753 414.548 416.935C415.364 415.753 416.528 415.162 418.039 415.162C419.299 415.162 420.238 415.531 420.854 416.269C421.469 416.999 421.777 418.102 421.777 419.577V427H418.662V419.588C418.662 418.929 418.533 418.449 418.275 418.148C418.018 417.84 417.563 417.687 416.911 417.687C415.98 417.687 415.336 418.131 414.978 419.019L414.988 427H411.884V419.599C411.884 418.925 411.751 418.438 411.486 418.138C411.221 417.837 410.77 417.687 410.133 417.687C409.252 417.687 408.615 418.052 408.221 418.782V427H405.116V415.377H408.027ZM427.449 427H424.334V415.377H427.449V427ZM424.151 412.369C424.151 411.904 424.305 411.521 424.613 411.22C424.928 410.919 425.354 410.769 425.892 410.769C426.422 410.769 426.844 410.919 427.159 411.22C427.474 411.521 427.632 411.904 427.632 412.369C427.632 412.842 427.471 413.229 427.148 413.529C426.833 413.83 426.414 413.98 425.892 413.98C425.369 413.98 424.946 413.83 424.624 413.529C424.309 413.229 424.151 412.842 424.151 412.369ZM433.293 427H430.178V410.5H433.293V427ZM441.21 427.215C439.506 427.215 438.116 426.692 437.042 425.646C435.975 424.601 435.441 423.208 435.441 421.468V421.167C435.441 420 435.667 418.958 436.118 418.041C436.569 417.117 437.207 416.408 438.03 415.914C438.861 415.413 439.806 415.162 440.866 415.162C442.456 415.162 443.706 415.663 444.615 416.666C445.532 417.669 445.99 419.09 445.99 420.931V422.198H438.589C438.689 422.957 438.99 423.566 439.491 424.024C440 424.483 440.641 424.712 441.414 424.712C442.61 424.712 443.545 424.279 444.218 423.412L445.743 425.12C445.278 425.779 444.647 426.295 443.853 426.667C443.058 427.032 442.177 427.215 441.21 427.215ZM440.855 417.676C440.24 417.676 439.738 417.883 439.352 418.299C438.972 418.714 438.729 419.309 438.621 420.082H442.939V419.835C442.925 419.147 442.739 418.618 442.381 418.245C442.023 417.866 441.514 417.676 440.855 417.676Z" fill="black"/>
</g>
<g id="arrow_1">
<path id="Arrow 4" d="M131 294L116.566 319L145.434 319L131 294ZM133.5 419L133.5 316.5L128.5 316.5L128.5 419L133.5 419Z" fill="black"/>
<line id="Line 1" x1="169" y1="416.5" x2="349" y2="416.5" stroke="black" stroke-width="5"/>
<line id="Line 7" x1="131" y1="416.5" x2="161" y2="416.5" stroke="black" stroke-width="5"/>
<line id="Line 2" x1="458" y1="416.5" x2="633" y2="416.5" stroke="black" stroke-width="5"/>
<line id="Line 3" x1="635.5" y1="414" x2="635.5" y2="474" stroke="black" stroke-width="5"/>
</g>
<g id="arrow_2">
<line id="Line 4" x1="177.5" y1="431" x2="177.5" y2="471" stroke="black" stroke-width="5"/>
<line id="Line 5" x1="177.5" y1="371" x2="177.5" y2="401" stroke="black" stroke-width="5"/>
<path id="Ellipse 2" d="M180 432C171.716 432 165 425.284 165 417C165 408.716 171.716 402 180 402" stroke="black" stroke-width="5"/>
<line id="Line 6" x1="175" y1="372.5" x2="348" y2="372.5" stroke="black" stroke-width="5"/>
<path id="Arrow 3" d="M675 294L660.566 319L689.434 319L675 294ZM677.5 374L677.5 316.5L672.5 316.5L672.5 374L677.5 374Z" fill="black"/>
<line id="Line 8" x1="458" y1="373.5" x2="677.5" y2="373.5" stroke="black" stroke-width="5"/>
</g>
<path id="neutral" d="M366.602 628.32L366.707 629.785C367.613 628.652 368.828 628.086 370.352 628.086C371.695 628.086 372.695 628.48 373.352 629.27C374.008 630.059 374.344 631.238 374.359 632.809V641H370.973V632.891C370.973 632.172 370.816 631.652 370.504 631.332C370.191 631.004 369.672 630.84 368.945 630.84C367.992 630.84 367.277 631.246 366.801 632.059V641H363.414V628.32H366.602ZM382.773 641.234C380.914 641.234 379.398 640.664 378.227 639.523C377.062 638.383 376.48 636.863 376.48 634.965V634.637C376.48 633.363 376.727 632.227 377.219 631.227C377.711 630.219 378.406 629.445 379.305 628.906C380.211 628.359 381.242 628.086 382.398 628.086C384.133 628.086 385.496 628.633 386.488 629.727C387.488 630.82 387.988 632.371 387.988 634.379V635.762H379.914C380.023 636.59 380.352 637.254 380.898 637.754C381.453 638.254 382.152 638.504 382.996 638.504C384.301 638.504 385.32 638.031 386.055 637.086L387.719 638.949C387.211 639.668 386.523 640.23 385.656 640.637C384.789 641.035 383.828 641.234 382.773 641.234ZM382.387 630.828C381.715 630.828 381.168 631.055 380.746 631.508C380.332 631.961 380.066 632.609 379.949 633.453H384.66V633.184C384.645 632.434 384.441 631.855 384.051 631.449C383.66 631.035 383.105 630.828 382.387 630.828ZM397.516 639.711C396.68 640.727 395.523 641.234 394.047 641.234C392.688 641.234 391.648 640.844 390.93 640.062C390.219 639.281 389.855 638.137 389.84 636.629V628.32H393.227V636.512C393.227 637.832 393.828 638.492 395.031 638.492C396.18 638.492 396.969 638.094 397.398 637.297V628.32H400.797V641H397.609L397.516 639.711ZM407.406 625.203V628.32H409.574V630.805H407.406V637.133C407.406 637.602 407.496 637.938 407.676 638.141C407.855 638.344 408.199 638.445 408.707 638.445C409.082 638.445 409.414 638.418 409.703 638.363V640.93C409.039 641.133 408.355 641.234 407.652 641.234C405.277 641.234 404.066 640.035 404.02 637.637V630.805H402.168V628.32H404.02V625.203H407.406ZM418.586 631.496C418.125 631.434 417.719 631.402 417.367 631.402C416.086 631.402 415.246 631.836 414.848 632.703V641H411.461V628.32H414.66L414.754 629.832C415.434 628.668 416.375 628.086 417.578 628.086C417.953 628.086 418.305 628.137 418.633 628.238L418.586 631.496ZM427.223 641C427.066 640.695 426.953 640.316 426.883 639.863C426.062 640.777 424.996 641.234 423.684 641.234C422.441 641.234 421.41 640.875 420.59 640.156C419.777 639.438 419.371 638.531 419.371 637.438C419.371 636.094 419.867 635.062 420.859 634.344C421.859 633.625 423.301 633.262 425.184 633.254H426.742V632.527C426.742 631.941 426.59 631.473 426.285 631.121C425.988 630.77 425.516 630.594 424.867 630.594C424.297 630.594 423.848 630.73 423.52 631.004C423.199 631.277 423.039 631.652 423.039 632.129H419.652C419.652 631.395 419.879 630.715 420.332 630.09C420.785 629.465 421.426 628.977 422.254 628.625C423.082 628.266 424.012 628.086 425.043 628.086C426.605 628.086 427.844 628.48 428.758 629.27C429.68 630.051 430.141 631.152 430.141 632.574V638.07C430.148 639.273 430.316 640.184 430.645 640.801V641H427.223ZM424.422 638.645C424.922 638.645 425.383 638.535 425.805 638.316C426.227 638.09 426.539 637.789 426.742 637.414V635.234H425.477C423.781 635.234 422.879 635.82 422.77 636.992L422.758 637.191C422.758 637.613 422.906 637.961 423.203 638.234C423.5 638.508 423.906 638.645 424.422 638.645ZM436.316 641H432.918V623H436.316V641Z" fill="black"/>
<path id="modified" d="M356.793 152.32L356.898 153.738C357.797 152.637 359.012 152.086 360.543 152.086C362.176 152.086 363.297 152.73 363.906 154.02C364.797 152.73 366.066 152.086 367.715 152.086C369.09 152.086 370.113 152.488 370.785 153.293C371.457 154.09 371.793 155.293 371.793 156.902V165H368.395V156.914C368.395 156.195 368.254 155.672 367.973 155.344C367.691 155.008 367.195 154.84 366.484 154.84C365.469 154.84 364.766 155.324 364.375 156.293L364.387 165H361V156.926C361 156.191 360.855 155.66 360.566 155.332C360.277 155.004 359.785 154.84 359.09 154.84C358.129 154.84 357.434 155.238 357.004 156.035V165H353.617V152.32H356.793ZM373.879 158.543C373.879 157.285 374.121 156.164 374.605 155.18C375.09 154.195 375.785 153.434 376.691 152.895C377.605 152.355 378.664 152.086 379.867 152.086C381.578 152.086 382.973 152.609 384.051 153.656C385.137 154.703 385.742 156.125 385.867 157.922L385.891 158.789C385.891 160.734 385.348 162.297 384.262 163.477C383.176 164.648 381.719 165.234 379.891 165.234C378.062 165.234 376.602 164.648 375.508 163.477C374.422 162.305 373.879 160.711 373.879 158.695V158.543ZM377.266 158.789C377.266 159.992 377.492 160.914 377.945 161.555C378.398 162.188 379.047 162.504 379.891 162.504C380.711 162.504 381.352 162.191 381.812 161.566C382.273 160.934 382.504 159.926 382.504 158.543C382.504 157.363 382.273 156.449 381.812 155.801C381.352 155.152 380.703 154.828 379.867 154.828C379.039 154.828 378.398 155.152 377.945 155.801C377.492 156.441 377.266 157.438 377.266 158.789ZM387.449 158.566C387.449 156.59 387.891 155.016 388.773 153.844C389.664 152.672 390.879 152.086 392.418 152.086C393.652 152.086 394.672 152.547 395.477 153.469V147H398.875V165H395.816L395.652 163.652C394.809 164.707 393.723 165.234 392.395 165.234C390.902 165.234 389.703 164.648 388.797 163.477C387.898 162.297 387.449 160.66 387.449 158.566ZM390.836 158.812C390.836 160 391.043 160.91 391.457 161.543C391.871 162.176 392.473 162.492 393.262 162.492C394.309 162.492 395.047 162.051 395.477 161.168V156.164C395.055 155.281 394.324 154.84 393.285 154.84C391.652 154.84 390.836 156.164 390.836 158.812ZM405.074 165H401.676V152.32H405.074V165ZM401.477 149.039C401.477 148.531 401.645 148.113 401.98 147.785C402.324 147.457 402.789 147.293 403.375 147.293C403.953 147.293 404.414 147.457 404.758 147.785C405.102 148.113 405.273 148.531 405.273 149.039C405.273 149.555 405.098 149.977 404.746 150.305C404.402 150.633 403.945 150.797 403.375 150.797C402.805 150.797 402.344 150.633 401.992 150.305C401.648 149.977 401.477 149.555 401.477 149.039ZM408.695 165V154.805H406.809V152.32H408.695V151.734C408.711 150.141 409.199 148.914 410.16 148.055C411.129 147.188 412.492 146.754 414.25 146.754C415.305 146.754 416.586 146.984 418.094 147.445L417.602 150.246C416.836 150.02 416.242 149.875 415.82 149.812C415.398 149.742 414.945 149.707 414.461 149.707C412.883 149.707 412.094 150.406 412.094 151.805V152.32H414.59V154.805H412.094V165H408.695ZM419.676 165H416.277V152.32H419.676V165ZM428.312 165.234C426.453 165.234 424.938 164.664 423.766 163.523C422.602 162.383 422.02 160.863 422.02 158.965V158.637C422.02 157.363 422.266 156.227 422.758 155.227C423.25 154.219 423.945 153.445 424.844 152.906C425.75 152.359 426.781 152.086 427.938 152.086C429.672 152.086 431.035 152.633 432.027 153.727C433.027 154.82 433.527 156.371 433.527 158.379V159.762H425.453C425.562 160.59 425.891 161.254 426.438 161.754C426.992 162.254 427.691 162.504 428.535 162.504C429.84 162.504 430.859 162.031 431.594 161.086L433.258 162.949C432.75 163.668 432.062 164.23 431.195 164.637C430.328 165.035 429.367 165.234 428.312 165.234ZM427.926 154.828C427.254 154.828 426.707 155.055 426.285 155.508C425.871 155.961 425.605 156.609 425.488 157.453H430.199V157.184C430.184 156.434 429.98 155.855 429.59 155.449C429.199 155.035 428.645 154.828 427.926 154.828ZM434.934 158.566C434.934 156.59 435.375 155.016 436.258 153.844C437.148 152.672 438.363 152.086 439.902 152.086C441.137 152.086 442.156 152.547 442.961 153.469V147H446.359V165H443.301L443.137 163.652C442.293 164.707 441.207 165.234 439.879 165.234C438.387 165.234 437.188 164.648 436.281 163.477C435.383 162.297 434.934 160.66 434.934 158.566ZM438.32 158.812C438.32 160 438.527 160.91 438.941 161.543C439.355 162.176 439.957 162.492 440.746 162.492C441.793 162.492 442.531 162.051 442.961 161.168V156.164C442.539 155.281 441.809 154.84 440.77 154.84C439.137 154.84 438.32 156.164 438.32 158.812Z" fill="black"/>
<rect x="0.5" y="0.5" width="799" height="799" stroke="black"/>
</g>
</svg>
